<svg width="106" height="110" viewBox="0 0 106 110" fill="none" xmlns="http://www.w3.org/2000/svg">
<path d="M0 109.745V51.9125L52.5 -1.65701e-05H105.5L0 109.745Z" fill="#012B74"/>
<path d="M22.0961 50.8348L31.7651 52.8042L25.8891 46.942C25.5078 46.5616 25.3028 46.1934 25.2765 45.8406C25.2635 45.6644 25.2907 45.4876 25.3561 45.3234C25.4215 45.1592 25.5233 45.0119 25.6539 44.8926C25.7753 44.7591 25.9252 44.6545 26.0925 44.5864C26.2598 44.5184 26.4403 44.4887 26.6206 44.4996C26.977 44.5236 27.3463 44.7261 27.7286 45.1072L35.498 52.8586C36.364 53.7227 36.4382 54.5138 35.7203 55.232C35.5575 55.3989 35.367 55.5363 35.1571 55.6383C34.9527 55.7321 34.7321 55.786 34.5074 55.7969C34.2581 55.8091 34.0082 55.7942 33.7622 55.7525C33.5044 55.7106 33.243 55.6648 32.978 55.6151L23.4705 53.6171L29.2576 59.3907C29.6345 59.7668 29.8322 60.1387 29.8506 60.5064C29.8609 60.685 29.8318 60.8637 29.7655 61.0299C29.6993 61.1962 29.5973 61.3459 29.4669 61.4687C29.3438 61.6015 29.1925 61.7052 29.0241 61.7722C28.8557 61.8392 28.6744 61.8678 28.4934 61.8559C28.1267 61.831 27.757 61.6323 27.3843 61.2598L19.7641 53.6573C19.4961 53.41 19.2749 53.1165 19.1111 52.7911C18.9934 52.4994 18.9685 52.1787 19.0398 51.8725C19.1042 51.558 19.2601 51.2694 19.4881 51.0428C19.6306 50.8889 19.8044 50.7671 19.9978 50.6853C20.1912 50.6036 20.3999 50.5639 20.6099 50.5688C20.839 50.5754 21.067 50.6046 21.2903 50.6562C21.5488 50.7125 21.8174 50.772 22.0961 50.8348Z" fill="white"/>
<path d="M36.7862 37.1957L32.2785 41.6929L34.7042 44.1129L38.8547 39.9721C39.16 39.6672 39.4565 39.5079 39.7441 39.4944C39.8876 39.4884 40.0307 39.5136 40.1635 39.5683C40.2963 39.6229 40.4156 39.7057 40.5132 39.8108C40.6187 39.9088 40.7023 40.028 40.7585 40.1605C40.8147 40.293 40.8422 40.4359 40.8391 40.5797C40.8329 40.8693 40.6746 41.1687 40.364 41.4779L36.2135 45.6188L39.0234 48.4222L43.6859 43.7699C44.0009 43.4562 44.3108 43.2926 44.6157 43.2789C44.7696 43.2736 44.9228 43.3016 45.0648 43.361C45.2068 43.4204 45.3342 43.5097 45.4382 43.6229C45.5484 43.7253 45.635 43.8504 45.6919 43.9895C45.7488 44.1286 45.7748 44.2783 45.7679 44.4284C45.7541 44.7332 45.59 45.0424 45.2758 45.3561L39.8383 50.7808C39.4025 51.2155 38.9928 51.432 38.609 51.4303C38.2252 51.4287 37.8175 51.2124 37.3858 50.7816L29.9622 43.3752C29.7116 43.1429 29.5148 42.8589 29.3857 42.543C29.289 42.2859 29.2901 42.0025 29.3887 41.7463C29.5194 41.4355 29.7145 41.1558 29.9612 40.9257L35.2436 35.656C35.5625 35.3378 35.871 35.173 36.1671 35.1587C36.314 35.1522 36.4606 35.1776 36.5967 35.2333C36.7327 35.289 36.8549 35.3736 36.9549 35.4812C37.0644 35.5815 37.1507 35.7044 37.2078 35.8414C37.2648 35.9783 37.2912 36.126 37.2852 36.2742C37.2716 36.5709 37.1053 36.8781 36.7862 37.1957Z" fill="white"/>
<path d="M53.0453 34.5012L45.526 30.1854L49.8314 37.7078C50.1555 38.2825 50.377 38.7021 50.4985 38.9713C50.6227 39.2581 50.6705 39.5721 50.6374 39.8828C50.5913 40.2539 50.413 40.5961 50.1351 40.847C49.9317 41.0671 49.6736 41.2296 49.387 41.3183C49.1316 41.3857 48.8629 41.3845 48.6082 41.3148C48.313 41.2336 48.03 41.1138 47.7664 40.9584C47.4722 40.7901 47.2017 40.632 46.9551 40.4842L38.6597 35.4894C38.2895 35.2859 37.9442 35.0404 37.6305 34.7579C37.5071 34.64 37.4098 34.4977 37.3447 34.3401C37.2797 34.1825 37.2483 34.013 37.2527 33.8427C37.2545 33.6689 37.2912 33.4972 37.3608 33.3378C37.4303 33.1785 37.5313 33.0347 37.6576 32.915C38.0216 32.5524 38.3832 32.4247 38.7423 32.5319C39.2203 32.6987 39.6735 32.9292 40.0896 33.2172L47.1506 37.6814L43.2026 30.8513C42.9619 30.4537 42.7438 30.0429 42.5493 29.6208C42.4181 29.314 42.3693 28.9783 42.4078 28.6469C42.4671 28.2523 42.6625 27.8909 42.9605 27.6248C43.226 27.325 43.5929 27.1332 43.9912 27.0861C44.3064 27.0583 44.6236 27.1092 44.9142 27.2341C45.1791 27.3553 45.5946 27.5771 46.1606 27.8997L53.0198 31.8258L48.5457 24.78C48.3542 24.4951 48.1777 24.2003 48.017 23.897C47.9012 23.6656 47.8437 23.4096 47.8494 23.1511C47.8585 22.9988 47.898 22.8498 47.9656 22.7128C48.0331 22.5759 48.1274 22.4538 48.2429 22.3537C48.3624 22.2291 48.5055 22.1292 48.6639 22.0599C48.8222 21.9906 48.9927 21.9531 49.1656 21.9498C49.3376 21.9441 49.5089 21.9748 49.6681 22.0399C49.8274 22.105 49.971 22.203 50.0895 22.3275C50.3699 22.6427 50.6157 22.987 50.8228 23.3543L55.83 31.6305C56.1668 32.19 56.4026 32.6112 56.5375 32.894C56.6733 33.1821 56.7326 33.5003 56.7094 33.8179C56.6658 34.1985 56.4821 34.5494 56.1939 34.8026C55.9426 35.0794 55.601 35.2584 55.2299 35.3076C54.9237 35.3434 54.6136 35.2982 54.3304 35.1767C54.0676 35.0586 53.6392 34.8334 53.0453 34.5012Z" fill="white"/>
</svg>
