<svg width="20" height="20" viewBox="0 0 20 20" fill="none" xmlns="http://www.w3.org/2000/svg">
<g clip-path="url(#clip0_375_1787)">
<path d="M10 0C8.02219 0 6.08879 0.58649 4.4443 1.6853C2.79981 2.78412 1.51809 4.3459 0.761209 6.17317C0.00433286 8.00043 -0.193701 10.0111 0.192152 11.9509C0.578004 13.8907 1.53041 15.6725 2.92894 17.0711C4.32746 18.4696 6.10929 19.422 8.0491 19.8079C9.98891 20.1937 11.9996 19.9957 13.8268 19.2388C15.6541 18.4819 17.2159 17.2002 18.3147 15.5557C19.4135 13.9112 20 11.9778 20 10C19.9971 7.34872 18.9426 4.80684 17.0679 2.9321C15.1932 1.05736 12.6513 0.00286757 10 0ZM10 13.3333C9.39 13.334 8.80091 13.111 8.34417 12.7067C8.07167 12.4642 7.81334 12.2283 7.64417 12.0592L5.25 9.70583C5.10266 9.549 5.0217 9.34125 5.02407 9.12608C5.02644 8.91091 5.11195 8.70499 5.2627 8.55144C5.41346 8.39788 5.61776 8.3086 5.83286 8.30227C6.04795 8.29595 6.25715 8.37307 6.41667 8.5175L8.81667 10.875C8.97334 11.0308 9.20667 11.2425 9.44917 11.4583C9.60141 11.5926 9.79742 11.6667 10.0004 11.6667C10.2034 11.6667 10.3994 11.5926 10.5517 11.4583C10.7933 11.2433 11.0267 11.0317 11.1783 10.8808L13.5833 8.5175C13.6602 8.43568 13.7528 8.37023 13.8556 8.32509C13.9584 8.27995 14.0693 8.25604 14.1815 8.25481C14.2938 8.25357 14.4051 8.27503 14.5089 8.3179C14.6127 8.36077 14.7067 8.42417 14.7853 8.50428C14.864 8.58439 14.9256 8.67957 14.9666 8.7841C15.0076 8.88864 15.027 9.00037 15.0237 9.11259C15.0204 9.2248 14.9944 9.3352 14.9474 9.43715C14.9004 9.53909 14.8332 9.63048 14.75 9.70583L12.3508 12.0633C12.1842 12.23 11.9283 12.4633 11.6567 12.7042C11.2002 13.1098 10.6107 13.3337 10 13.3333Z" fill="#0847B2"/>
</g>
<defs>
<clipPath id="clip0_375_1787">
<rect width="20" height="20" fill="white"/>
</clipPath>
</defs>
</svg>
