<svg width="20" height="21" viewBox="0 0 20 21" fill="none" xmlns="http://www.w3.org/2000/svg">
<g clip-path="url(#clip0_388_6037)">
<path d="M10 20.5C11.9778 20.5 13.9112 19.9135 15.5557 18.8147C17.2002 17.7159 18.4819 16.1541 19.2388 14.3268C19.9957 12.4996 20.1937 10.4889 19.8078 8.5491C19.422 6.60929 18.4696 4.82746 17.0711 3.42893C15.6725 2.03041 13.8907 1.078 11.9509 0.692146C10.0111 0.306295 8.00042 0.504327 6.17316 1.2612C4.3459 2.01808 2.78412 3.2998 1.6853 4.9443C0.586488 6.58879 -2.76756e-06 8.52218 -2.94047e-06 10.5C0.00286357 13.1513 1.05735 15.6932 2.93209 17.5679C4.80684 19.4426 7.34871 20.4971 10 20.5ZM10 7.16667C10.61 7.16604 11.1991 7.38898 11.6558 7.79333C11.9283 8.03583 12.1867 8.27167 12.3558 8.44083L14.75 10.7942C14.8973 10.951 14.9783 11.1587 14.9759 11.3739C14.9736 11.5891 14.8881 11.795 14.7373 11.9486C14.5865 12.1021 14.3822 12.1914 14.1671 12.1977C13.952 12.2041 13.7428 12.1269 13.5833 11.9825L11.1833 9.625C11.0267 9.46917 10.7933 9.2575 10.5508 9.04167C10.3986 8.90738 10.2026 8.83329 9.99958 8.83329C9.79658 8.83329 9.60057 8.90738 9.44833 9.04167C9.20666 9.25667 8.97333 9.46833 8.82166 9.61917L6.41666 11.9825C6.33979 12.0643 6.24718 12.1298 6.14439 12.1749C6.0416 12.2201 5.93074 12.244 5.81848 12.2452C5.70622 12.2464 5.59486 12.225 5.4911 12.1821C5.38734 12.1392 5.29331 12.0758 5.21466 11.9957C5.13601 11.9156 5.07436 11.8204 5.0334 11.7159C4.99245 11.6114 4.97304 11.4996 4.97634 11.3874C4.97964 11.2752 5.00558 11.1648 5.05261 11.0629C5.09963 10.9609 5.16677 10.8695 5.25 10.7942L7.64916 8.43667C7.81583 8.27 8.07166 8.03666 8.34333 7.79583C8.7998 7.39019 9.38933 7.16629 10 7.16667Z" fill="#0847B2"/>
</g>
<defs>
<clipPath id="clip0_388_6037">
<rect width="20" height="20" fill="white" transform="translate(20 20.5) rotate(-180)"/>
</clipPath>
</defs>
</svg>
