<svg width="79" height="73" viewBox="0 0 79 73" fill="none" xmlns="http://www.w3.org/2000/svg">
<g clip-path="url(#clip0_970_1373)">
<path d="M56.9198 38.0028L59.4751 17.6896C60.4815 9.68907 54.7914 2.36135 46.7909 1.35493L23.5758 -1.56541C15.5753 -2.57184 8.24761 3.11831 7.24119 11.1188L2.54893 48.4197C2.25945 50.7209 3.25675 52.9864 5.14827 54.3298C6.00865 54.9421 6.99074 55.3133 8.00059 55.4403C9.20778 55.5922 10.4562 55.3925 11.5881 54.8304L24.0531 48.6074L40.5851 50.687C48.5856 51.6934 55.9133 46.0033 56.9198 38.0028ZM30.0713 40.5328C28.4694 40.3313 27.3329 38.8677 27.5344 37.2658C27.7359 35.664 29.1995 34.5275 30.8014 34.729C32.4032 34.9305 33.5397 36.3941 33.3382 37.9959C33.1367 39.5978 31.6731 40.7343 30.0713 40.5328ZM35.8659 28.3768C34.479 28.9275 34.4527 29.1365 34.4333 29.2903C34.2315 30.895 32.7682 32.0286 31.1664 31.8271C29.5646 31.6256 28.4277 30.1649 28.6296 28.5602C29.107 24.7645 32.3276 23.4865 33.7022 22.9401C34.6018 22.5846 35.6242 21.6048 35.5481 20.03C35.491 18.8672 34.6462 17.7793 33.5364 17.4393C32.6689 17.1651 31.7814 17.2834 31.0432 17.7624C30.3122 18.2305 29.8327 18.9956 29.7243 19.8574C29.5225 21.4622 28.0592 22.5958 26.4574 22.3943C24.8556 22.1928 23.7187 20.7321 23.9206 19.1273C24.2451 16.5476 25.6856 14.2585 27.8706 12.8472C30.0556 11.4359 32.744 11.0608 35.2563 11.8514C38.6877 12.905 41.2122 16.1527 41.3879 19.7476C41.5706 23.5202 39.351 26.9876 35.8626 28.3794L35.8659 28.3768ZM75.4262 31.4874L70.7339 68.7882C70.4444 71.0894 68.9171 73.0374 66.7518 73.8704C65.7666 74.2506 64.7231 74.3669 63.7129 74.2428C62.5057 74.091 61.3456 73.5883 60.3911 72.7637L49.8532 63.6441L33.3212 61.5645C29.1135 61.0352 25.5801 58.7306 23.2888 55.527L25.0787 54.632L39.855 56.4908C51.0534 57.8995 61.3148 49.9312 62.7235 38.7329L65.2788 18.4197C65.3913 17.5259 65.4224 16.6455 65.4209 15.7668C71.9666 17.8873 76.3158 24.4155 75.4262 31.4874Z" fill="white" fill-opacity="0.1"/>
</g>
<defs>
<clipPath id="clip0_970_1373">
<rect width="70.3068" height="76.9371" fill="white" transform="matrix(0.990604 0.136763 -0.113874 0.993495 9.06445 0.15918)"/>
</clipPath>
</defs>
</svg>
